<svg xmlns="http://www.w3.org/2000/svg" width="66" height="33" viewBox="0 0 66 33" fill="none"><rect x="0.458333" y="0.458333" width="65.0833" height="32.0833" fill="#F2FAFF"></rect><rect x="0.458333" y="0.458333" width="65.0833" height="32.0833" stroke="#EEEEEE" stroke-width="0.916667"></rect><g clip-path="url(#clip0_68_711)"><path d="M31.6085 16.2499V22.1458H29.7065V7.56445H34.6515C35.8561 7.56445 36.9972 8.00823 37.8848 8.8324C38.7724 9.59317 39.2161 10.7343 39.2161 11.9389C39.2161 13.1434 38.7724 14.2212 37.8848 15.0453C36.9972 15.8695 35.9195 16.3133 34.6515 16.3133L31.6085 16.2499ZM31.6085 9.33958V14.4114H34.7783C35.4757 14.4114 36.1731 14.1578 36.6168 13.6506C37.6312 12.6996 37.6312 11.1147 36.6802 10.1637L36.6168 10.1003C36.1097 9.59317 35.4757 9.27618 34.7783 9.33958H31.6085Z" fill="#5F6368"></path><path d="M43.5968 11.875C44.9916 11.875 46.0693 12.2554 46.8935 13.0162C47.7176 13.7769 48.098 14.7913 48.098 16.0592V22.1454H46.3229V20.7506H46.2595C45.4987 21.8918 44.421 22.4623 43.153 22.4623C42.0753 22.4623 41.1243 22.1454 40.3636 21.5114C39.6662 20.8774 39.2224 19.9898 39.2224 19.0389C39.2224 18.0245 39.6028 17.2004 40.3636 16.5664C41.1243 15.9324 42.2021 15.6788 43.47 15.6788C44.6112 15.6788 45.4987 15.869 46.1961 16.3128V15.869C46.1961 15.2351 45.9425 14.6011 45.4353 14.2207C44.9282 13.7769 44.2942 13.5233 43.5968 13.5233C42.5191 13.5233 41.6949 13.9671 41.1243 14.8547L39.476 13.8403C40.4904 12.509 41.8217 11.875 43.5968 11.875ZM41.1877 19.1023C41.1877 19.6095 41.4413 20.0532 41.8217 20.3068C42.2655 20.6238 42.7727 20.814 43.2798 20.814C44.0406 20.814 44.8014 20.497 45.3719 19.9265C46.0059 19.3559 46.3229 18.6585 46.3229 17.8977C45.7523 17.454 44.9282 17.2004 43.8504 17.2004C43.0896 17.2004 42.4557 17.3906 41.9485 17.7709C41.4413 18.0879 41.1877 18.5317 41.1877 19.1023Z" fill="#5F6368"></path><path d="M58.3684 12.1919L52.0921 26.5831H50.1902L52.5359 21.5747L48.415 12.2553H50.4437L53.4234 19.4192H53.4868L56.4031 12.2553H58.3684V12.1919Z" fill="#5F6368"></path><path d="M24.0641 14.9813C24.0641 14.4107 24.0007 13.8401 23.9374 13.2695H16.0127V16.5028H20.5139C20.3237 17.5171 19.7531 18.4681 18.8656 19.0387V21.1308H21.5917C23.1766 19.6727 24.0641 17.5171 24.0641 14.9813Z" fill="#4285F4"></path><path d="M16.0126 23.16C18.2949 23.16 20.1968 22.3992 21.5916 21.1313L18.8655 19.0391C18.1047 19.5463 17.1538 19.8633 16.0126 19.8633C13.8571 19.8633 11.9552 18.4052 11.3212 16.3765H8.53174V18.532C9.98988 21.3848 12.8428 23.16 16.0126 23.16Z" fill="#34A853"></path><path d="M11.3276 16.3761C10.9473 15.3617 10.9473 14.2206 11.3276 13.1428V10.9873H8.53183C7.32728 13.333 7.32728 16.1225 8.53183 18.5316L11.3213 16.3761H11.3276Z" fill="#FBBC04"></path><path d="M16.0127 9.71984C17.2172 9.71984 18.3584 10.1636 19.246 10.9878L21.655 8.57869C20.1335 7.18395 18.1048 6.35979 16.0761 6.41684C12.9062 6.41684 9.98995 8.19831 8.59521 11.0512L11.3847 13.2067C11.9553 11.178 13.8572 9.71984 16.0127 9.71984Z" fill="#EA4335"></path></g><defs><clipPath id="clip0_68_711"><rect width="50.7368" height="20.1667" fill="white" transform="translate(7.63159 6.4165)"></rect></clipPath></defs></svg>