<svg width="74" height="50" viewBox="0 0 74 50" fill="none" xmlns="http://www.w3.org/2000/svg">
<path d="M73.5403 36.5881C73.555 31.2069 72.3766 25.8888 70.0891 21.0127C67.8016 16.1367 64.4614 11.8227 60.3064 8.37826C56.1515 4.93385 51.2841 2.44379 46.0513 1.08555C40.8184 -0.27269 35.3489 -0.465665 30.0325 0.520377C24.7161 1.50642 19.6837 3.6472 15.294 6.79015C10.9044 9.9331 7.26543 14.0008 4.63662 18.7034C2.00781 23.4061 0.453823 28.6278 0.0854218 33.9964C-0.282979 39.3651 0.543267 44.7485 2.50528 49.7631L2.5887 49.9781H4.10723L4.40871 49.972L4.49716 49.6921L10.2627 31.538L18.0624 35.043L25.4641 20.312C27.9423 25.508 32.3896 29.5144 37.8314 31.453L29.5654 36.7751L30.6518 38.452L44.6582 29.436L55.0698 37.154H42.2673V39.1491H58.5862V37.3221L44.7356 27.007L40.0172 30.044C29.7161 27.472 26.5354 17.721 26.5052 17.624L25.7746 15.229L17.1318 32.4351L9.02962 28.792L3.4761 46.292C2.51363 43.1472 2.01764 39.8794 2.0038 36.592C2.0038 27.4173 5.66662 18.6183 12.1865 12.1307C18.7063 5.64321 27.5491 1.99855 36.7696 1.99855C45.9901 1.99855 54.8329 5.64321 61.3527 12.1307C67.8726 18.6183 71.5354 27.4173 71.5354 36.592C71.5242 40.2238 70.9305 43.8305 69.7767 47.2761L63.2503 38.147L57.6687 48.014H42.2734V49.9991H58.8405L63.4463 41.8591L68.9415 49.6021L69.2239 50.002H70.8902L71.2068 49.273C72.7405 45.2161 73.5308 40.9185 73.5403 36.584" fill="white"/>
</svg>
