<svg xmlns="http://www.w3.org/2000/svg" width="74" height="51" viewBox="0 0 74 51" fill="none"><path d="M58.2949 42.9292H42.0569V44.9232H58.2949V42.9292Z" fill="#074365"></path><path d="M73.1759 36.6872C73.1905 31.306 72.0179 25.9879 69.7417 21.1118C67.4656 16.2358 64.1419 11.9218 60.0075 8.47739C55.8732 5.03297 51.03 2.54291 45.823 1.18467C40.6161 -0.173569 35.1737 -0.366543 29.8836 0.619498C24.5936 1.60554 19.5862 3.74632 15.2182 6.88927C10.8503 10.0322 7.22942 14.1 4.61364 18.8026C1.99786 23.5052 0.451574 28.7269 0.0849984 34.0956C-0.281577 39.4642 0.540574 44.8476 2.49287 49.8622L2.57587 50.0772H4.08688L4.38686 50.0712L4.47488 49.7912L10.2119 31.6372L17.9729 35.1422L25.3379 20.4112C27.8038 25.6071 32.2291 29.6135 37.6439 31.5522L29.4189 36.8742L30.4999 38.5512L44.4369 29.5352L54.7969 37.2532H42.0579V39.2482H58.2959V37.4212L44.5139 27.1062L39.8189 30.1432C29.5689 27.5712 26.4039 17.8202 26.3739 17.7232L25.6469 15.3282L17.0469 32.5342L8.98487 28.8912L3.45887 46.3912C2.50117 43.2463 2.00764 39.9786 1.99387 36.6912C1.99387 27.5164 5.63854 18.7174 12.1261 12.2299C18.6136 5.74233 27.4126 2.09767 36.5874 2.09767C45.7621 2.09767 54.5611 5.74233 61.0487 12.2299C67.5362 18.7174 71.1809 27.5164 71.1809 36.6912C71.1697 40.3229 70.5789 43.9296 69.4309 47.3752L62.9369 38.2462L57.3829 48.1132H42.0639V50.0982H58.5489L63.1319 41.9582L68.5999 49.7012L68.8809 50.1012H70.5389L70.8539 49.3722C72.38 45.3153 73.1664 41.0176 73.1759 36.6832" fill="#074365"></path></svg>