<svg width="66" height="33" viewBox="0 0 66 33" fill="none" xmlns="http://www.w3.org/2000/svg">
<rect x="0.458333" y="0.458333" width="65.0833" height="32.0833" fill="#F2FAFF"/>
<rect x="0.458333" y="0.458333" width="65.0833" height="32.0833" stroke="#EEEEEE" stroke-width="0.916667"/>
<g clip-path="url(#clip0_68_720)">
<path d="M17.4163 9.01649C16.8406 9.69766 15.9196 10.2349 14.9986 10.1582C14.8835 9.23715 15.3344 8.25856 15.8621 7.65413C16.4377 6.95377 17.4451 6.45488 18.2606 6.4165C18.3565 7.37591 17.9823 8.31612 17.4163 9.01649ZM18.251 10.3405C16.9174 10.2637 15.7757 11.0984 15.1425 11.0984C14.5093 11.0984 13.5307 10.3788 12.4754 10.398C11.1034 10.4172 9.8274 11.1943 9.12704 12.432C7.68793 14.9072 8.75287 18.5721 10.144 20.5869C10.8252 21.5847 11.6407 22.6784 12.7152 22.64C13.7322 22.6016 14.1351 21.978 15.3632 21.978C16.5912 21.978 16.9558 22.64 18.0303 22.6208C19.1432 22.6016 19.8436 21.6231 20.5248 20.6253C21.3019 19.4932 21.6185 18.3899 21.6377 18.3323C21.6185 18.3131 19.4886 17.4976 19.4694 15.0415C19.4502 12.9884 21.1484 12.0098 21.2251 11.9523C20.2657 10.5323 18.769 10.3788 18.251 10.3405ZM25.955 7.55819V22.5153H28.2767V17.4017H31.4907C34.4265 17.4017 36.4892 15.3869 36.4892 12.4703C36.4892 9.55375 34.4649 7.55819 31.5675 7.55819H25.955ZM28.2767 9.51538H30.9535C32.9682 9.51538 34.1195 10.5899 34.1195 12.4799C34.1195 14.37 32.9682 15.4541 30.9439 15.4541H28.2767V9.51538ZM40.7298 22.6304C42.1881 22.6304 43.5408 21.8917 44.1549 20.7212H44.2028V22.5153H46.3519V15.0703C46.3519 12.9117 44.625 11.5205 41.9674 11.5205C39.5018 11.5205 37.6789 12.9309 37.6117 14.8689H39.7032C39.8759 13.9478 40.7298 13.3434 41.9003 13.3434C43.3202 13.3434 44.1165 14.0054 44.1165 15.2238V16.0489L41.2191 16.2216C38.5232 16.3847 37.0649 17.488 37.0649 19.4068C37.0649 21.3256 38.5711 22.6304 40.7298 22.6304ZM41.3534 20.8555C40.1158 20.8555 39.3291 20.2607 39.3291 19.3493C39.3291 18.4378 40.087 17.8622 41.5357 17.7758L44.1165 17.6127V18.457C44.1165 19.8577 42.9268 20.8555 41.3534 20.8555ZM49.2205 26.5832C51.4847 26.5832 52.5497 25.7197 53.4803 23.1005L57.5577 11.6644H55.1976L52.4633 20.5006H52.4153L49.681 11.6644H47.2537L51.1873 22.5537L50.9762 23.2157C50.6213 24.3382 50.0456 24.7699 49.019 24.7699C48.8368 24.7699 48.4818 24.7507 48.3379 24.7315V26.5256C48.4722 26.564 49.0478 26.5832 49.2205 26.5832Z" fill="black"/>
</g>
<defs>
<clipPath id="clip0_68_720">
<rect width="49.1157" height="20.1667" fill="white" transform="translate(8.44226 6.4165)"/>
</clipPath>
</defs>
</svg>
