<svg width="18" height="19" viewBox="0 0 18 19" fill="none" xmlns="http://www.w3.org/2000/svg">
<path d="M10.925 15.2C10.26 15.2 9.69792 14.9704 9.23875 14.5113C8.77958 14.0521 8.55 13.49 8.55 12.825C8.55 12.16 8.77958 11.5979 9.23875 11.1388C9.69792 10.6796 10.26 10.45 10.925 10.45C11.59 10.45 12.1521 10.6796 12.6113 11.1388C13.0704 11.5979 13.3 12.16 13.3 12.825C13.3 13.49 13.0704 14.0521 12.6113 14.5113C12.1521 14.9704 11.59 15.2 10.925 15.2ZM1.9 19C1.3775 19 0.930208 18.814 0.558125 18.4419C0.186042 18.0698 0 17.6225 0 17.1V3.8C0 3.2775 0.186042 2.83021 0.558125 2.45813C0.930208 2.08604 1.3775 1.9 1.9 1.9H2.85V0H4.75V1.9H12.35V0H14.25V1.9H15.2C15.7225 1.9 16.1698 2.08604 16.5419 2.45813C16.914 2.83021 17.1 3.2775 17.1 3.8V17.1C17.1 17.6225 16.914 18.0698 16.5419 18.4419C16.1698 18.814 15.7225 19 15.2 19H1.9ZM1.9 17.1H15.2V7.6H1.9V17.1ZM1.9 5.7H15.2V3.8H1.9V5.7Z" fill="#074365"/>
</svg>
