<svg width="11" height="20" viewBox="0 0 11 20" fill="none" xmlns="http://www.w3.org/2000/svg">
<path d="M10.4127 8.70344L10.1628 10.7102C10.1205 11.0454 9.83667 11.2976 9.49995 11.2976H6.24975V19.6877C5.90698 19.7186 5.55969 19.7345 5.20863 19.7345C4.42345 19.7345 3.65714 19.656 2.9165 19.5065V11.2976H0.416752C0.187237 11.2976 0 11.1096 0 10.8793V8.36823C0 8.13796 0.187237 7.94997 0.416752 7.94997H2.9165V4.18411C2.9165 1.87311 4.78206 0 7.084 0H10.0005C10.23 0 10.4173 0.187989 10.4173 0.418259V2.92933C10.4173 3.1596 10.23 3.34759 10.0005 3.34759H7.91675C6.99643 3.34759 6.2505 4.09653 6.2505 5.02139V7.95072H9.7506C10.1523 7.95072 10.4626 8.30406 10.4135 8.7042L10.4127 8.70344Z" fill="white"/>
</svg>
