<svg width="66" height="33" viewBox="0 0 66 33" fill="none" xmlns="http://www.w3.org/2000/svg">
<rect x="0.458333" y="0.458333" width="65.0833" height="32.0833" fill="#F2FAFF"/>
<rect x="0.458333" y="0.458333" width="65.0833" height="32.0833" stroke="#EEEEEE" stroke-width="0.916667"/>
<g clip-path="url(#clip0_68_723)">
<path d="M21.6746 30.0436V28.2286C21.6837 28.0728 21.6654 27.9261 21.6104 27.7794C21.5554 27.6328 21.4729 27.5044 21.3629 27.3944C21.2529 27.2844 21.1246 27.2019 20.9779 27.1469C20.8312 27.0919 20.6754 27.0644 20.5287 27.0736C20.3271 27.0644 20.1254 27.1011 19.9421 27.1928C19.7587 27.2844 19.6121 27.4219 19.5021 27.5869C19.4012 27.4219 19.2637 27.2936 19.0896 27.2019C18.9154 27.1103 18.7321 27.0644 18.5396 27.0736C18.3746 27.0736 18.2004 27.1011 18.0537 27.1744C17.9071 27.2478 17.7787 27.3669 17.6871 27.5044V27.1469H17.0546V30.0344H17.6962V28.4486C17.6871 28.3478 17.6962 28.2469 17.7237 28.1553C17.7512 28.0636 17.8062 27.9719 17.8704 27.8986C17.9346 27.8253 18.0262 27.7703 18.1179 27.7336C18.2096 27.6969 18.3104 27.6786 18.4112 27.6878C18.8329 27.6878 19.0437 27.9628 19.0437 28.4486V30.0528H19.6854V28.4486C19.6762 28.3478 19.6854 28.2469 19.7129 28.1553C19.7404 28.0636 19.7954 27.9719 19.8596 27.8986C19.9237 27.8253 20.0154 27.7703 20.1071 27.7336C20.1987 27.6969 20.2996 27.6786 20.4004 27.6878C20.8312 27.6878 21.0421 27.9628 21.0421 28.4486V30.0528H21.6837L21.6746 30.0436ZM31.1712 27.1469H30.1262V26.2669H29.4846V27.1469H28.9071V27.7244H29.5029V29.0536C29.5029 29.7228 29.7687 30.1261 30.5204 30.1261C30.8046 30.1261 31.0796 30.0528 31.3179 29.9061L31.1346 29.3653C30.9604 29.4661 30.7679 29.5211 30.5754 29.5303C30.2729 29.5303 30.1537 29.3378 30.1537 29.0444V27.7244H31.1896V27.1469H31.1712ZM36.5887 27.0736C36.4329 27.0736 36.2771 27.1103 36.1487 27.1836C36.0112 27.2569 35.9012 27.3669 35.8187 27.4953V27.1469H35.1862V30.0344H35.8187V28.4119C35.8187 27.9353 36.0296 27.6694 36.4329 27.6694C36.5704 27.6694 36.7079 27.6878 36.8271 27.7428L37.0196 27.1378C36.8729 27.0828 36.7171 27.0553 36.5704 27.0553H36.5796L36.5887 27.0736ZM28.3937 27.3853C28.0362 27.1744 27.6237 27.0644 27.2021 27.0828C26.4596 27.0828 25.9829 27.4311 25.9829 28.0086C25.9829 28.4761 26.3404 28.7694 26.9912 28.8611L27.2937 28.9069C27.6421 28.9528 27.8071 29.0444 27.8071 29.2094C27.8071 29.4294 27.5779 29.5578 27.1379 29.5578C26.7896 29.5669 26.4504 29.4569 26.1662 29.2553L25.8637 29.7411C26.2304 29.9978 26.6796 30.1261 27.1287 30.1169C27.9721 30.1169 28.4579 29.7228 28.4579 29.1728C28.4579 28.6228 28.0729 28.4028 27.4404 28.3111L27.1379 28.2653C26.8629 28.2286 26.6429 28.1736 26.6429 27.9811C26.6429 27.7886 26.8537 27.6419 27.2021 27.6419C27.5229 27.6419 27.8437 27.7336 28.1187 27.8894L28.4029 27.3853H28.3937ZM45.4162 27.0828C45.2604 27.0828 45.1046 27.1194 44.9762 27.1928C44.8387 27.2661 44.7287 27.3761 44.6462 27.5044V27.1561H44.0137V30.0436H44.6462V28.4211C44.6462 27.9444 44.8571 27.6786 45.2604 27.6786C45.3979 27.6786 45.5354 27.6969 45.6546 27.7519L45.8471 27.1469C45.7004 27.0919 45.5446 27.0644 45.3979 27.0644H45.4071L45.4162 27.0828ZM37.2304 28.6044C37.2304 28.8061 37.2579 29.0078 37.3312 29.2003C37.4046 29.3928 37.5237 29.5578 37.6704 29.7044C37.8171 29.8511 37.9912 29.9611 38.1837 30.0253C38.3762 30.0986 38.5779 30.1261 38.7887 30.1169C39.1737 30.1353 39.5496 30.0161 39.8429 29.7686L39.5404 29.2644C39.3204 29.4294 39.0546 29.5211 38.7796 29.5211C38.5412 29.5028 38.3212 29.3928 38.1654 29.2278C38.0096 29.0536 37.9179 28.8336 37.9179 28.5953C37.9179 28.3569 38.0096 28.1369 38.1654 27.9628C38.3212 27.7886 38.5412 27.6878 38.7796 27.6694C39.0546 27.6694 39.3204 27.7611 39.5404 27.9261L39.8429 27.4219C39.5496 27.1836 39.1737 27.0553 38.7887 27.0736C38.5871 27.0644 38.3762 27.0919 38.1837 27.1653C37.9912 27.2386 37.8171 27.3486 37.6704 27.4861C37.5237 27.6328 37.4046 27.7978 37.3312 27.9903C37.2579 28.1828 37.2212 28.3844 37.2304 28.5861V28.6044ZM43.1796 28.6136V27.1744H42.5471V27.5228C42.4371 27.3853 42.2996 27.2753 42.1437 27.2019C41.9879 27.1286 41.8137 27.0919 41.6304 27.1011C41.2271 27.1011 40.8329 27.2569 40.5487 27.5411C40.2646 27.8253 40.0996 28.2103 40.0996 28.6136C40.0996 29.0169 40.2646 29.4019 40.5487 29.6861C40.8329 29.9703 41.2271 30.1261 41.6304 30.1261C41.8046 30.1261 41.9787 30.0986 42.1437 30.0253C42.2996 29.9519 42.4462 29.8419 42.5471 29.7044V30.0528H43.1796V28.6136ZM40.8146 28.6136C40.8237 28.4394 40.8879 28.2836 40.9887 28.1461C41.0896 28.0086 41.2362 27.9078 41.3921 27.8436C41.5571 27.7886 41.7312 27.7703 41.8962 27.8161C42.0612 27.8528 42.2171 27.9444 42.3362 28.0636C42.4554 28.1828 42.5379 28.3386 42.5654 28.5128C42.5929 28.6778 42.5746 28.8519 42.5104 29.0078C42.4462 29.1636 42.3271 29.3011 42.1896 29.3928C42.0521 29.4844 41.8779 29.5394 41.7037 29.5394C41.5846 29.5394 41.4654 29.5211 41.3554 29.4753C41.2454 29.4294 41.1446 29.3561 41.0621 29.2736C40.9796 29.1911 40.9154 29.0811 40.8696 28.9711C40.8329 28.8611 40.8146 28.7419 40.8237 28.6228L40.8146 28.6136ZM33.1421 27.1011C32.7387 27.1011 32.3537 27.2753 32.0696 27.5594C31.7854 27.8436 31.6296 28.2378 31.6387 28.6319C31.6387 29.0353 31.8129 29.4111 32.0971 29.6953C32.3904 29.9703 32.7754 30.1261 33.1879 30.1261C33.6279 30.1444 34.0587 30.0069 34.3979 29.7319L34.0954 29.2644C33.8571 29.4569 33.5546 29.5578 33.2429 29.5669C33.0321 29.5853 32.8212 29.5211 32.6562 29.3928C32.4912 29.2644 32.3904 29.0719 32.3629 28.8611H34.5354V28.6228C34.5354 27.7153 33.9671 27.1103 33.1512 27.1103H33.1421V27.1011ZM33.1421 27.6603C33.2337 27.6603 33.3346 27.6786 33.4171 27.7061C33.5087 27.7428 33.5912 27.7886 33.6554 27.8528C33.7196 27.9169 33.7746 27.9994 33.8204 28.0819C33.8571 28.1644 33.8754 28.2653 33.8846 28.3569H32.3537C32.3629 28.1644 32.4546 27.9811 32.6012 27.8528C32.7479 27.7244 32.9404 27.6511 33.1329 27.6603H33.1421ZM49.0646 28.6136V26.0103H48.4504V27.5228C48.3404 27.3853 48.2029 27.2753 48.0471 27.2019C47.8912 27.1286 47.7171 27.0919 47.5337 27.1011C47.1304 27.1011 46.7362 27.2569 46.4521 27.5411C46.1679 27.8253 46.0029 28.2103 46.0029 28.6136C46.0029 29.0169 46.1679 29.4019 46.4521 29.6861C46.7362 29.9703 47.1304 30.1261 47.5337 30.1261C47.7079 30.1261 47.8821 30.0986 48.0471 30.0253C48.2029 29.9519 48.3496 29.8419 48.4504 29.7044V30.0528H49.0646V28.6228V28.6136ZM50.1279 29.6403C50.1279 29.6403 50.2104 29.6403 50.2471 29.6586C50.2837 29.6769 50.3112 29.6953 50.3387 29.7228C50.3662 29.7503 50.3846 29.7778 50.4029 29.8144C50.4212 29.8511 50.4304 29.8878 50.4304 29.9244C50.4304 29.9611 50.4304 29.9978 50.4029 30.0344C50.3846 30.0711 50.3662 30.0986 50.3387 30.1261C50.3112 30.1536 50.2746 30.1719 50.2471 30.1903C50.2104 30.2086 50.1737 30.2178 50.1279 30.2178C50.0729 30.2178 50.0179 30.1994 49.9629 30.1719C49.9171 30.1444 49.8712 30.0986 49.8529 30.0436C49.8346 30.0069 49.8254 29.9703 49.8254 29.9336C49.8254 29.8969 49.8254 29.8603 49.8529 29.8236C49.8712 29.7869 49.8896 29.7594 49.9171 29.7319C49.9446 29.7044 49.9721 29.6861 50.0087 29.6678C50.0454 29.6494 50.0912 29.6494 50.1371 29.6494L50.1279 29.6403ZM50.1279 30.1536C50.1279 30.1536 50.1921 30.1536 50.2196 30.1353C50.2471 30.1261 50.2654 30.1078 50.2929 30.0894C50.3296 30.0436 50.3479 29.9978 50.3479 29.9428C50.3479 29.8878 50.3296 29.8328 50.2929 29.7961C50.2746 29.7778 50.2471 29.7594 50.2196 29.7503C50.1921 29.7411 50.1646 29.7319 50.1279 29.7319C50.1004 29.7319 50.0637 29.7319 50.0362 29.7503C50.0087 29.7594 49.9812 29.7778 49.9629 29.7961C49.9262 29.8419 49.9079 29.8878 49.9079 29.9428C49.9079 29.9978 49.9262 30.0528 49.9629 30.0894C49.9812 30.1078 50.0087 30.1261 50.0362 30.1353C50.0637 30.1444 50.1004 30.1536 50.1371 30.1536H50.1279ZM50.1462 29.7961C50.1462 29.7961 50.2012 29.7961 50.2287 29.8236C50.2379 29.8236 50.2471 29.8419 50.2471 29.8511C50.2471 29.8603 50.2471 29.8786 50.2471 29.8878C50.2471 29.8969 50.2471 29.9061 50.2471 29.9153C50.2471 29.9244 50.2379 29.9336 50.2287 29.9428C50.2104 29.9611 50.1921 29.9703 50.1646 29.9703L50.2562 30.0711H50.1829L50.1004 29.9703H50.0729V30.0711H50.0179V29.8053H50.1462V29.7961ZM50.0821 29.8419V29.9153H50.1462C50.1462 29.9153 50.1737 29.9153 50.1829 29.9153C50.1829 29.9153 50.1829 29.9153 50.1829 29.9061C50.1829 29.8969 50.1829 29.8969 50.1829 29.8969C50.1829 29.8969 50.1829 29.8969 50.1829 29.8878C50.1829 29.8786 50.1829 29.8786 50.1829 29.8786C50.1737 29.8786 50.1554 29.8786 50.1462 29.8786L50.0821 29.8603V29.8419ZM46.7179 28.6136C46.7271 28.4394 46.7912 28.2836 46.8921 28.1461C46.9929 28.0086 47.1396 27.9078 47.2954 27.8436C47.4604 27.7886 47.6346 27.7703 47.7996 27.8161C47.9646 27.8619 48.1204 27.9444 48.2396 28.0636C48.3587 28.1828 48.4412 28.3386 48.4687 28.5128C48.4962 28.6778 48.4779 28.8519 48.4137 29.0078C48.3496 29.1636 48.2304 29.3011 48.0929 29.3928C47.9462 29.4844 47.7812 29.5394 47.6071 29.5394C47.4879 29.5394 47.3687 29.5211 47.2587 29.4753C47.1487 29.4294 47.0479 29.3561 46.9654 29.2736C46.8829 29.1911 46.8187 29.0811 46.7729 28.9711C46.7362 28.8611 46.7179 28.7419 46.7271 28.6228L46.7179 28.6136ZM25.2587 28.6136V27.1653H24.6262V27.5136C24.5162 27.3761 24.3787 27.2661 24.2229 27.1928C24.0671 27.1194 23.8929 27.0828 23.7096 27.0919C23.3062 27.0919 22.9121 27.2478 22.6279 27.5319C22.3437 27.8161 22.1787 28.2011 22.1787 28.6044C22.1787 29.0078 22.3437 29.3928 22.6279 29.6769C22.9121 29.9611 23.3062 30.1169 23.7096 30.1169C23.8837 30.1169 24.0579 30.0894 24.2229 30.0161C24.3787 29.9428 24.5254 29.8328 24.6262 29.6953V30.0436H25.2587V28.6136ZM22.8937 28.6136C22.9029 28.4394 22.9671 28.2836 23.0679 28.1461C23.1687 28.0086 23.3154 27.9078 23.4712 27.8436C23.6362 27.7886 23.8104 27.7703 23.9754 27.8161C24.1404 27.8528 24.2962 27.9444 24.4154 28.0636C24.5346 28.1828 24.6171 28.3386 24.6446 28.5128C24.6721 28.6778 24.6537 28.8519 24.5896 29.0078C24.5254 29.1636 24.4062 29.3011 24.2687 29.3928C24.1221 29.4844 23.9571 29.5394 23.7829 29.5394C23.6637 29.5394 23.5446 29.5211 23.4254 29.4753C23.3154 29.4294 23.2146 29.3561 23.1321 29.2736C23.0496 29.1911 22.9854 29.0811 22.9396 28.9711C22.8937 28.8611 22.8846 28.7419 22.8846 28.6136H22.8937Z" fill="black"/>
<path d="M37.8079 5.1377H28.1829V22.2427H37.8079V5.1377Z" fill="#FF5F00"/>
<path d="M28.797 13.6898C28.797 12.0398 29.1729 10.4173 29.897 8.93234C30.6212 7.44734 31.6845 6.15484 32.9954 5.13734C31.3729 3.87234 29.4295 3.09317 27.3762 2.87317C25.3229 2.65317 23.2512 3.01067 21.3995 3.909C19.5387 4.79817 17.9804 6.1915 16.8804 7.924C15.7895 9.6565 15.2029 11.6548 15.2029 13.699C15.2029 15.7432 15.7804 17.7415 16.8804 19.474C17.9712 21.2065 19.5387 22.5907 21.3995 23.489C23.2604 24.3782 25.332 24.7357 27.3762 24.5248C29.4295 24.3048 31.3729 23.5257 33.0045 22.2607C31.6937 21.2432 30.6395 19.9415 29.9062 18.4657C29.182 16.9807 28.797 15.3582 28.8062 13.7082L28.797 13.6898Z" fill="#EB001B"/>
<path d="M50.797 13.6904C50.797 15.7346 50.2195 17.7329 49.1195 19.4654C48.0287 21.1979 46.4612 22.5821 44.6004 23.4804C42.7395 24.3696 40.6679 24.7271 38.6145 24.5163C36.5612 24.2963 34.6179 23.5171 32.9862 22.2521C34.297 21.2346 35.3512 19.9329 36.0845 18.4571C36.8087 16.9721 37.1937 15.3496 37.1937 13.6996C37.1937 12.0496 36.8179 10.4271 36.0845 8.9421C35.3604 7.4571 34.297 6.1646 32.9862 5.1471C34.6087 3.8821 36.5612 3.10294 38.6145 2.88294C40.6679 2.66294 42.7395 3.02044 44.6004 3.91877C46.4612 4.80794 48.0195 6.20127 49.1195 7.93377C50.2104 9.66627 50.797 11.6646 50.797 13.7088V13.6904Z" fill="#F79E1B"/>
<path d="M49.7428 20.4275V20.0792H49.8895V20.0059H49.5228V20.0792H49.6787V20.4275H49.7428ZM50.4487 20.4275V20.0059H50.3387L50.2103 20.3084L50.082 20.0059H49.9812V20.4275H50.0637V20.1067L50.1828 20.3817H50.2653L50.3845 20.1067V20.4275H50.4487Z" fill="#F79E1B"/>
</g>
<defs>
<clipPath id="clip0_68_723">
<rect width="35.5942" height="27.3808" fill="white" transform="translate(15.2029 2.80957)"/>
</clipPath>
</defs>
</svg>
