<svg width="66" height="33" viewBox="0 0 66 33" fill="none" xmlns="http://www.w3.org/2000/svg">
<rect x="0.458333" y="0.458333" width="65.0833" height="32.0833" fill="#F2FAFF"/>
<rect x="0.458333" y="0.458333" width="65.0833" height="32.0833" stroke="#EEEEEE" stroke-width="0.916667"/>
<path d="M26.6189 18.497L26.1215 21.3779H24.1567L25.5992 12.8706H28.5961C29.5287 12.8706 30.2624 13.1415 30.7847 13.6709C31.3194 14.2003 31.5557 14.8774 31.4935 15.7146C31.4438 16.2932 31.2697 16.7857 30.9588 17.2043C30.6479 17.6229 30.2251 17.943 29.7153 18.1646C29.2054 18.3862 28.621 18.497 27.9868 18.497H26.6065H26.6189ZM26.8925 16.9088H28.0738C28.5712 16.9088 28.9567 16.7488 29.2179 16.4287C29.479 16.1086 29.5909 15.7146 29.5287 15.2591C29.5039 15.0251 29.4044 14.8405 29.2552 14.6927C29.1059 14.5573 28.9194 14.4711 28.6707 14.4588H27.3028L26.88 16.9088H26.8925Z" fill="#002F86"/>
<path d="M34.9878 21.3901C34.9381 21.2423 34.9132 21.0454 34.9132 20.8114C34.4904 21.2916 33.9806 21.5132 33.3961 21.5009C32.8614 21.5009 32.4137 21.3039 32.0531 20.9469C31.6925 20.5898 31.5308 20.1589 31.5557 19.6418C31.5806 18.9524 31.8542 18.4353 32.4013 18.066C32.9484 17.6966 33.6821 17.5119 34.6272 17.5119H35.2614L35.336 17.1672L35.3609 16.8594C35.3484 16.5024 35.1743 16.3177 34.8386 16.3054C34.4282 16.3054 34.1671 16.527 34.08 16.9948H32.1899C32.2148 16.5763 32.3391 16.2069 32.6003 15.8991C32.849 15.579 33.1972 15.3451 33.6324 15.1727C34.0676 15.0004 34.5277 14.9265 35.0251 14.9388C35.4977 14.9388 35.908 15.0496 36.2562 15.2466C36.6168 15.4313 36.878 15.7021 37.0521 16.0345C37.2262 16.367 37.3008 16.7609 37.251 17.1918L36.7909 20.1712L36.766 20.5283C36.7536 20.8114 36.7909 21.0577 36.878 21.267V21.3778H35.0376L34.9878 21.3901ZM33.906 20.122C34.2914 20.1343 34.6272 19.9619 34.9256 19.6049L35.1122 18.583H34.6272C34.3288 18.583 34.0676 18.6815 33.8438 18.8539C33.6199 19.0263 33.4956 19.2602 33.4583 19.5557C33.4334 19.7157 33.4583 19.8511 33.5453 19.9496C33.6199 20.0481 33.7443 20.1097 33.906 20.1097V20.122Z" fill="#002F86"/>
<path d="M40.3598 18.6082L41.9639 15.0625H44.053L40.4095 22.3386C40.136 22.9173 39.8251 23.3236 39.4645 23.5821C39.1163 23.8407 38.6935 23.9638 38.1961 23.9638C37.9722 23.9638 37.6987 23.9268 37.3629 23.8406L37.5121 22.4371H37.736C37.9722 22.4371 38.1712 22.4002 38.3453 22.3263C38.5194 22.2525 38.6686 22.1047 38.793 21.8831L39.0665 21.3537L38.0717 15.0748H40.024L40.3598 18.6205V18.6082Z" fill="#002F86"/>
<path d="M46.5773 18.6444L46.0675 21.3776H44.053L45.5328 13.3135H48.6167C49.5742 13.3135 50.3203 13.572 50.8675 14.0645C51.4146 14.5569 51.6633 15.2095 51.5887 15.9974C51.539 16.5391 51.3524 17.0069 51.0291 17.4132C50.7058 17.8072 50.283 18.115 49.7483 18.3243C49.226 18.5336 48.6291 18.6444 47.9701 18.6444H46.5525H46.5773ZM46.8509 17.1424H48.0695C48.5794 17.1424 48.9773 16.9823 49.2385 16.6868C49.512 16.3791 49.6115 16.0097 49.5618 15.5788C49.5245 15.3572 49.4374 15.1725 49.2882 15.0494C49.139 14.914 48.94 14.8401 48.6913 14.8278H47.2861L46.8509 17.1424Z" fill="#009CDE"/>
<path d="M55.1701 21.3783C55.1204 21.2305 55.0831 21.0582 55.0831 20.8366C54.6479 21.2921 54.1256 21.5014 53.5163 21.4891C52.9567 21.4891 52.4966 21.3044 52.136 20.972C51.7753 20.6273 51.6012 20.221 51.6261 19.7408C51.651 19.0883 51.937 18.5958 52.4966 18.2511C53.0562 17.9064 53.8147 17.7217 54.7846 17.7217H55.4313L55.5059 17.3893L55.5308 17.0938C55.5183 16.7614 55.3318 16.5891 54.996 16.5767C54.5733 16.5767 54.3121 16.786 54.2126 17.2416H52.2727C52.2976 16.8476 52.4344 16.4906 52.6955 16.1951C52.9567 15.8996 53.3049 15.6657 53.7525 15.5056C54.2002 15.3456 54.6727 15.2717 55.1826 15.284C55.6675 15.284 56.0903 15.3948 56.451 15.5672C56.8116 15.7396 57.0852 15.9981 57.2717 16.3182C57.4582 16.6383 57.5204 17.0077 57.4831 17.4262L57.0105 20.2456L56.9857 20.5903C56.9732 20.8612 57.0105 21.0951 57.0976 21.2921V21.4029H55.2074L55.1701 21.3783ZM54.0634 20.1717C54.4613 20.184 54.8095 20.024 55.108 19.6793L55.3069 18.719H54.8095C54.4986 18.719 54.2375 18.8051 54.0137 18.9775C53.7898 19.1376 53.653 19.3592 53.6157 19.6423C53.5909 19.7901 53.6157 19.9132 53.7028 20.024C53.7898 20.1225 53.9142 20.1717 54.0758 20.184L54.0634 20.1717Z" fill="#009CDE"/>
<path d="M59.8956 21.3779H57.9557L59.5225 12.8706H61.4624L59.8956 21.3779Z" fill="#009CDE"/>
<path d="M18.2377 9.04032C17.4154 8.07976 15.9185 7.67725 14.0058 7.67725H8.46185C8.07377 7.67725 7.74113 7.96999 7.67645 8.35421L5.36646 23.2291C5.32026 23.5218 5.54202 23.7871 5.83769 23.7871H9.25649L10.1158 18.2525L10.0881 18.4263C10.1528 18.0329 10.4762 17.7493 10.8735 17.7493H12.4997C15.6968 17.7493 18.1915 16.432 18.9215 12.6172C18.94 12.5075 18.9585 12.3977 18.9769 12.2879C18.9153 12.2574 18.9153 12.2574 18.9769 12.2879C19.1987 10.8791 18.9769 9.91854 18.2285 9.04947" fill="#003087"/>
<path d="M18.2377 9.04032C17.4154 8.07976 15.9185 7.67725 14.0058 7.67725H8.46185C8.07377 7.67725 7.74113 7.96999 7.67645 8.35421L5.36646 23.2291C5.32026 23.5218 5.54202 23.7871 5.83769 23.7871H9.25649L10.1158 18.2525L10.0881 18.4263C10.1528 18.0329 10.4762 17.7493 10.8735 17.7493H12.4997C15.6968 17.7493 18.1915 16.432 18.9215 12.6172C18.94 12.5075 18.9585 12.3977 18.9769 12.2879C18.9153 12.2574 18.9153 12.2574 18.9769 12.2879C19.1987 10.8791 18.9769 9.91854 18.2285 9.04947" fill="#003087"/>
<path d="M11.049 12.2971C11.086 12.0592 11.2338 11.8671 11.4371 11.7665C11.5295 11.7207 11.6312 11.6933 11.7328 11.6933H16.0756C16.593 11.6933 17.0735 11.7299 17.5078 11.8031C17.6371 11.8213 17.7573 11.8488 17.8774 11.8762C17.9975 11.9037 18.1084 11.9311 18.2193 11.9677C18.2747 11.986 18.3301 12.0043 18.3856 12.0226C18.5981 12.0958 18.8014 12.1781 18.9862 12.2788C19.2079 10.8699 18.9862 9.90939 18.2377 9.04032C17.4154 8.07976 15.9185 7.67725 14.0058 7.67725H8.46185C8.07377 7.67725 7.74113 7.96999 7.67645 8.35421L5.36646 23.2291C5.32026 23.5218 5.54202 23.7871 5.83769 23.7871H9.25649L10.1158 18.2525L11.0398 12.3062L11.049 12.2971Z" fill="#002F86"/>
<path d="M18.9953 12.2786C18.9768 12.3883 18.9583 12.4981 18.9399 12.6079C18.2099 16.4227 15.7059 17.74 12.5181 17.74H10.8918C10.5038 17.74 10.1711 18.0327 10.1157 18.4169L9.28408 23.7777L9.04384 25.2963C9.00688 25.5525 9.20092 25.7812 9.4504 25.7812H12.3333C12.6751 25.7812 12.9616 25.525 13.017 25.1866L13.0447 25.0402L13.5899 21.5365L13.6269 21.3443C13.6823 21.0059 13.9687 20.7497 14.3106 20.7497H14.7449C17.5354 20.7497 19.7253 19.5971 20.3628 16.258C20.6308 14.8675 20.4922 13.6965 19.7899 12.8823C19.5774 12.6353 19.3095 12.4341 19.0045 12.2603" fill="#009CDE"/>
<path d="M18.2283 11.9673C18.1174 11.9307 18.0065 11.9033 17.8864 11.8758C17.7663 11.8484 17.6461 11.8301 17.5168 11.8026C17.0733 11.7295 16.602 11.6929 16.0846 11.6929H11.7418C11.6309 11.6929 11.5293 11.7203 11.4461 11.7661C11.2428 11.8667 11.095 12.0588 11.058 12.2966L10.134 18.2429L10.1063 18.4167C10.171 18.0234 10.4944 17.7398 10.8825 17.7398H12.5087C15.7058 17.7398 18.2005 16.4225 18.9305 12.6077C18.949 12.4979 18.9675 12.3881 18.9859 12.2784C18.8011 12.1777 18.5979 12.0954 18.3853 12.0222C18.3299 12.0039 18.2745 11.9856 18.219 11.9673" fill="#012069"/>
</svg>
