<svg width="37" height="37" viewBox="0 0 37 37" fill="none" xmlns="http://www.w3.org/2000/svg">
<path d="M17.7737 0.00995128C8.31248 0.316592 0.497003 7.97955 0.0239434 17.4346C-0.147097 20.8431 0.604868 24.0651 2.06719 26.8618L0.0131465 36.0611C-0.0731444 36.4771 0.295137 36.8454 0.711183 36.7591L9.91042 34.7051H9.91657C12.6948 36.1566 15.883 36.9086 19.2668 36.7514C28.7064 36.3138 36.394 28.5584 36.7592 19.1157C37.1722 8.42177 28.4552 -0.336753 17.7752 0.00995128H17.7737ZM18.3854 32.9685C15.7104 32.9685 13.2049 32.2458 11.0507 30.9838C10.8473 30.8697 10.6516 30.7496 10.4605 30.6217L4.58349 32.1872L6.14906 26.3102C4.66516 24.0281 3.8038 21.3084 3.8038 18.3853C3.8038 10.3464 10.3465 3.80367 18.3854 3.80367C26.4243 3.80367 32.967 10.3464 32.967 18.3853C32.967 26.4242 26.4243 32.9669 18.3854 32.9669V32.9685Z" fill="white"/>
<path d="M27.0331 24.8048C26.7788 25.187 26.5122 25.543 26.0854 25.9682C25.1516 26.902 23.8542 27.3736 22.5382 27.2395C20.1806 26.9976 16.8307 25.6955 13.9507 22.8217C11.0708 19.9417 9.76871 16.5918 9.53295 14.2342C9.3989 12.9183 9.87041 11.6224 10.8042 10.687C11.2295 10.2618 11.5855 9.99364 11.9676 9.73323C12.6733 9.25709 13.6333 9.5745 13.8999 10.3758L14.866 13.2742C15.1326 14.0693 15.0124 14.5717 14.6688 14.9076L13.8999 15.6842C13.5177 16.0664 13.4546 16.6565 13.7473 17.1142C14.1726 17.7814 14.9739 18.8492 16.4486 20.3239C17.9232 21.7985 18.991 22.5998 19.6583 23.0251C20.1159 23.3179 20.7076 23.2547 21.0882 22.8725L21.8649 22.1036C22.2023 21.76 22.7046 21.6398 23.4982 21.9064L26.3967 22.8725C27.1979 23.1391 27.5154 24.0991 27.0331 24.8048Z" fill="white"/>
</svg>
